<?xml version="1.0" standalone="no"?>
<!DOCTYPE svg PUBLIC "-//W3C//DTD SVG 20010904//EN"
 "http://www.w3.org/TR/2001/REC-SVG-20010904/DTD/svg10.dtd">
<svg version="1.0" xmlns="http://www.w3.org/2000/svg"
 width="1024.000000pt" height="1024.000000pt" viewBox="0 0 1024.000000 1024.000000"
 preserveAspectRatio="xMidYMid meet">

<g transform="translate(0.000000,1024.000000) scale(0.100000,-0.100000)"
fill="#000000" stroke="none">
<path d="M2546 8979 c-161 -13 -427 -88 -394 -111 9 -6 6 -7 -9 -3 -14 4 -46
-6 -95 -31 -80 -40 -230 -137 -250 -162 -10 -12 -10 -14 0 -8 28 17 8 -4 -50
-53 l-63 -53 54 51 c30 28 50 51 45 51 -6 0 -57 -43 -113 -96 -72 -68 -100
-101 -96 -113 3 -8 3 -12 -1 -8 -4 4 -16 0 -26 -10 -20 -18 -25 -38 -5 -27 8
6 8 3 -1 -9 -8 -9 -19 -15 -24 -14 -17 3 -123 -158 -183 -278 -61 -123 -113
-270 -147 -420 l-22 -100 -4 -2325 c-3 -2366 -2 -2453 34 -2630 23 -114 78
-269 137 -388 62 -126 163 -285 176 -277 9 5 71 -65 71 -81 0 -4 -14 11 -31
34 -17 24 -34 41 -37 38 -7 -8 68 -97 77 -91 5 2 17 -5 27 -18 l19 -22 -22 19
c-33 28 -28 5 5 -27 16 -15 32 -24 37 -20 4 5 5 3 2 -3 -7 -12 25 -47 36 -39
4 3 5 2 2 -2 -6 -8 74 -93 88 -93 4 0 5 6 1 13 -9 13 -7 13 64 -42 23 -18 40
-37 37 -42 -12 -18 221 -154 355 -208 78 -31 212 -67 267 -73 l33 -3 4 275 c4
306 20 456 67 638 50 196 121 335 233 459 132 146 368 262 709 349 165 42 307
72 311 65 2 -3 13 -41 25 -84 28 -105 106 -277 164 -364 100 -151 242 -257
343 -257 88 0 168 48 310 186 l122 119 42 -26 41 -26 30 25 c39 34 88 46 180
46 80 0 143 -16 187 -49 26 -19 27 -19 68 5 l40 24 115 -113 c171 -170 271
-212 392 -167 175 66 329 271 423 565 26 82 41 115 53 115 38 0 353 -85 488
-131 247 -86 376 -159 503 -288 222 -226 310 -556 310 -1167 l0 -201 58 9
c133 21 294 74 271 90 -10 7 -9 8 6 4 33 -9 252 104 240 124 -3 5 9 18 27 30
l33 22 -30 -26 c-52 -44 -13 -28 58 25 38 28 66 53 63 56 -7 8 23 43 37 43 5
0 -1 -9 -14 -20 -13 -10 -19 -19 -13 -20 13 0 56 44 49 51 -2 3 37 45 87 95
51 49 85 80 77 69 -31 -44 19 6 60 59 43 56 53 77 24 55 -16 -13 -17 -12 -4 3
7 10 17 15 22 12 5 -3 25 20 44 51 43 67 54 92 35 80 -9 -5 -11 -4 -6 4 4 6
11 9 16 6 14 -9 98 166 140 294 22 64 49 170 62 236 l23 120 0 2385 0 2385
-22 124 c-24 128 -70 280 -124 404 -41 95 -119 228 -129 222 -5 -3 -12 0 -16
6 -5 8 -3 9 6 4 8 -5 11 -3 8 6 -3 8 -10 14 -18 14 -7 0 -24 16 -37 35 l-25
35 31 -35 c17 -19 31 -31 31 -26 0 14 -52 76 -60 71 -4 -3 -14 3 -21 13 -13
15 -12 16 4 3 28 -22 20 3 -10 30 -21 18 -24 19 -13 4 8 -11 -9 2 -38 30 -29
27 -52 51 -52 54 0 3 18 -13 40 -34 22 -21 40 -35 40 -29 0 11 -112 124 -123
124 -5 0 -5 -6 -1 -12 5 -9 2 -8 -9 1 -10 8 -15 16 -12 19 7 7 -45 62 -58 62
-5 0 -3 -8 4 -17 13 -16 12 -17 -3 -4 -10 7 -16 17 -13 21 8 13 -118 98 -230
156 -113 60 -268 115 -395 140 -79 17 -259 18 -2630 20 -1400 1 -2589 -2
-2644 -7z m611 -15 c-3 -3 -12 -4 -19 -1 -8 3 -5 6 6 6 11 1 17 -2 13 -5z m40
0 c-3 -3 -12 -4 -19 -1 -8 3 -5 6 6 6 11 1 17 -2 13 -5z m716 -1 c-7 -2 -19
-2 -25 0 -7 3 -2 5 12 5 14 0 19 -2 13 -5z m320 0 c-7 -2 -19 -2 -25 0 -7 3
-2 5 12 5 14 0 19 -2 13 -5z m1904 1 c-3 -3 -12 -4 -19 -1 -8 3 -5 6 6 6 11 1
17 -2 13 -5z m816 -1 c-7 -2 -19 -2 -25 0 -7 3 -2 5 12 5 14 0 19 -2 13 -5z
m765 0 c-15 -2 -42 -2 -60 0 -18 2 -6 4 27 4 33 0 48 -2 33 -4z m75 -10 c-7
-2 -19 -2 -25 0 -7 3 -2 5 12 5 14 0 19 -2 13 -5z m-5376 -9 c-3 -3 -12 -4
-19 -1 -8 3 -5 6 6 6 11 1 17 -2 13 -5z m5426 -1 c-7 -2 -19 -2 -25 0 -7 3 -2
5 12 5 14 0 19 -2 13 -5z m44 -9 c-3 -3 -12 -4 -19 -1 -8 3 -5 6 6 6 11 1 17
-2 13 -5z m-5567 -14 c-8 -5 -24 -9 -35 -9 -16 1 -16 2 5 9 35 11 48 11 30 0z
m5670 -11 c18 -11 -34 -1 -65 13 -13 5 -9 6 15 2 19 -4 42 -10 50 -15z m-5730
-3 c0 -2 -21 -11 -47 -20 -51 -17 -51 -8 0 11 35 13 47 15 47 9z m5860 -46
c18 -12 2 -12 -25 0 -13 6 -15 9 -5 9 8 0 22 -4 30 -9z m-6030 -24 c0 -2 -7
-7 -16 -10 -8 -3 -12 -2 -9 4 6 10 25 14 25 6z m6095 -6 c3 -6 -1 -7 -9 -4
-18 7 -21 14 -7 14 6 0 13 -4 16 -10z m40 -20 c3 -6 -1 -7 -9 -4 -18 7 -21 14
-7 14 6 0 13 -4 16 -10z m158 -98 c26 -18 47 -35 47 -37 0 -5 -161 102 -169
112 -10 11 72 -39 122 -75z m-6703 -165 c0 -2 -17 -19 -37 -38 l-38 -34 34 38
c33 34 41 42 41 34z m3739 -226 c274 -59 513 -172 876 -411 165 -109 383 -237
620 -365 251 -135 343 -195 433 -280 83 -78 138 -161 177 -265 25 -66 28 -89
28 -190 0 -103 -3 -125 -32 -210 -39 -116 -83 -197 -160 -292 -66 -83 -106
-121 -215 -203 l-76 -57 0 -167 0 -167 66 -28 c123 -54 215 -162 249 -291 36
-140 10 -428 -52 -585 -70 -174 -206 -335 -339 -400 -65 -32 -74 -39 -89 -80
-35 -89 -139 -287 -202 -385 -74 -113 -128 -180 -221 -277 l-65 -67 7 -97 c4
-54 8 -99 10 -101 1 -2 68 -19 147 -39 384 -95 712 -233 904 -379 333 -255
497 -665 507 -1270 3 -204 0 -335 -9 -335 -5 0 -7 93 -5 207 6 337 -28 595
-109 830 -82 240 -218 430 -409 573 -180 134 -506 267 -894 365 -76 19 -142
37 -145 40 -3 4 -8 53 -11 111 l-5 104 59 57 c160 158 328 417 421 650 27 67
28 68 97 101 75 37 175 123 233 202 45 62 109 190 128 260 43 152 59 361 37
481 -25 135 -112 245 -245 309 l-80 39 3 176 3 175 60 41 c127 86 261 233 329
362 61 112 82 191 87 322 5 111 3 126 -22 200 -31 94 -70 161 -134 230 -101
109 -165 153 -506 338 -258 139 -382 213 -598 354 -287 187 -436 267 -621 332
-369 130 -691 133 -1056 9 -141 -48 -350 -157 -580 -304 -219 -140 -377 -234
-695 -414 -260 -147 -357 -214 -447 -308 -131 -138 -185 -276 -175 -452 14
-244 151 -475 390 -655 l77 -57 0 -177 0 -177 -67 -29 c-46 -20 -86 -47 -124
-85 -106 -105 -134 -198 -126 -420 6 -162 31 -284 85 -401 69 -154 189 -287
312 -347 l76 -37 42 -100 c87 -205 238 -438 383 -590 l86 -90 -8 -55 c-4 -30
-8 -78 -8 -106 l-1 -51 -152 -37 c-390 -95 -702 -223 -899 -367 -354 -260
-525 -746 -506 -1434 5 -154 4 -167 -5 -90 -14 132 -3 475 21 625 47 294 120
488 252 673 153 215 369 357 744 491 120 42 356 110 441 126 34 7 67 16 74 20
7 5 16 47 22 105 l10 97 -70 71 c-154 161 -337 447 -417 657 -15 41 -24 48
-87 78 -128 62 -256 205 -324 361 -93 214 -116 503 -54 680 37 104 144 211
246 246 l39 13 -1 84 c0 45 -2 124 -2 175 l-2 91 -69 51 c-126 94 -248 236
-314 366 -69 139 -96 337 -63 472 36 145 146 293 303 404 43 31 164 105 268
164 291 166 541 312 635 373 479 311 647 385 1030 456 14 2 104 3 200 2 136
-2 198 -8 279 -25z m-3919 15 c0 -2 -8 -10 -17 -17 -16 -13 -17 -12 -4 4 13
16 21 21 21 13z m-50 -66 c-6 -11 -13 -20 -16 -20 -2 0 0 9 6 20 6 11 13 20
16 20 2 0 0 -9 -6 -20z m7360 -10 c6 -11 8 -20 6 -20 -3 0 -10 9 -16 20 -6 11
-8 20 -6 20 3 0 10 -9 16 -20z m-7390 -40 c-6 -11 -13 -20 -16 -20 -2 0 0 9 6
20 6 11 13 20 16 20 2 0 0 -9 -6 -20z m7430 -30 c11 -22 18 -40 15 -40 -2 0
-14 18 -25 40 -11 22 -18 40 -15 40 2 0 14 -18 25 -40z m-7465 -30 c-9 -16
-18 -30 -21 -30 -2 0 2 14 11 30 9 17 18 30 21 30 2 0 -2 -13 -11 -30z m7554
-165 c-1 -13 -57 107 -57 120 0 6 13 -17 28 -50 16 -33 29 -64 29 -70z m-7613
48 c-8 -15 -15 -25 -16 -21 0 12 23 58 27 54 3 -2 -2 -17 -11 -33z m4059 -14
c234 -50 461 -163 829 -411 168 -114 267 -172 505 -297 118 -62 244 -132 280
-156 149 -95 242 -212 256 -321 14 -104 -36 -246 -122 -345 -44 -51 -133 -129
-147 -129 -3 0 -57 24 -119 54 -310 149 -774 238 -1441 276 -448 25 -898 2
-1341 -71 -318 -51 -554 -121 -737 -217 -105 -54 -106 -54 -208 48 -162 161
-201 363 -101 517 71 110 177 186 496 358 244 132 309 171 495 295 395 265
689 394 965 424 87 9 294 -4 390 -25z m-4094 -66 c-12 -20 -14 -14 -5 12 4 9
9 14 11 11 3 -2 0 -13 -6 -23z m7698 -118 c0 -5 -4 -3 -9 5 -5 8 -9 22 -9 30
0 16 17 -16 18 -35z m-7749 -32 c-11 -17 -11 -17 -6 0 3 10 6 24 7 30 0 9 2 9
5 0 3 -7 0 -20 -6 -30z m7757 -5 c-3 -8 -6 -5 -6 6 -1 11 2 17 5 13 3 -3 4
-12 1 -19z m10 -40 c-3 -8 -6 -5 -6 6 -1 11 2 17 5 13 3 -3 4 -12 1 -19z
m-7780 -10 c-3 -8 -6 -5 -6 6 -1 11 2 17 5 13 3 -3 4 -12 1 -19z m7790 -40
c-3 -7 -5 -2 -5 12 0 14 2 19 5 13 2 -7 2 -19 0 -25z m-7800 0 c-3 -8 -6 -5
-6 6 -1 11 2 17 5 13 3 -3 4 -12 1 -19z m7810 -50 c-3 -7 -5 -2 -5 12 0 14 2
19 5 13 2 -7 2 -19 0 -25z m-7826 -24 c-5 -21 -9 -30 -10 -19 -1 24 10 67 15
62 3 -2 0 -22 -5 -43z m7836 -36 c-3 -8 -6 -5 -6 6 -1 11 2 17 5 13 3 -3 4
-12 1 -19z m-7850 -65 c-3 -10 -5 -2 -5 17 0 19 2 27 5 18 2 -10 2 -26 0 -35z
m7860 -50 c-2 -16 -4 -5 -4 22 0 28 2 40 4 28 2 -13 2 -35 0 -50z m-7870
-3440 c-1 -632 -2 -115 -2 1147 0 1262 1 1779 2 1148 2 -632 2 -1664 0 -2295z
m7880 3310 c-3 -10 -5 -4 -5 12 0 17 2 24 5 18 2 -7 2 -21 0 -30z m0 -145 c-2
-13 -4 -3 -4 22 0 25 2 35 4 23 2 -13 2 -33 0 -45z m-3377 -817 c380 -36 736
-109 939 -193 l74 -31 -24 -20 c-58 -48 -267 -129 -461 -178 -723 -183 -1744
-163 -2378 48 -106 35 -245 99 -289 132 l-25 19 40 20 c68 35 294 102 444 132
170 35 414 67 596 79 173 12 928 6 1084 -8z m-1930 -644 c208 -69 462 -121
771 -158 252 -31 869 -34 1107 -6 486 57 818 140 1105 275 5 2 7 -93 5 -211
l-3 -215 95 1 c143 0 206 -34 251 -137 19 -42 23 -68 22 -151 -1 -274 -149
-484 -358 -510 l-52 -7 -33 -99 c-18 -55 -60 -154 -94 -222 -107 -214 -215
-357 -398 -532 -363 -345 -824 -500 -1264 -425 -139 24 -318 82 -435 141 -394
198 -743 606 -889 1041 l-33 96 -52 7 c-210 26 -357 237 -359 516 -1 98 1 109
29 164 25 47 40 63 84 88 45 26 66 31 120 31 36 0 78 -3 94 -7 l27 -7 0 218 0
218 78 -37 c42 -21 124 -53 182 -72z m5307 -704 c-2 -16 -4 -5 -4 22 0 28 2
40 4 28 2 -13 2 -35 0 -50z m0 -100 c-3 -10 -5 -2 -5 17 0 19 2 27 5 18 2 -10
2 -26 0 -35z m0 -290 c-3 -10 -5 -4 -5 12 0 17 2 24 5 18 2 -7 2 -21 0 -30z
m0 -175 c-3 -7 -5 -2 -5 12 0 14 2 19 5 13 2 -7 2 -19 0 -25z m0 -220 c-2 -18
-4 -6 -4 27 0 33 2 48 4 33 2 -15 2 -42 0 -60z m0 -95 c-3 -10 -5 -4 -5 12 0
17 2 24 5 18 2 -7 2 -21 0 -30z m0 -160 c-2 -16 -4 -5 -4 22 0 28 2 40 4 28 2
-13 2 -35 0 -50z m0 -105 c-3 -8 -6 -5 -6 6 -1 11 2 17 5 13 3 -3 4 -12 1 -19z
m0 -55 c-3 -10 -5 -4 -5 12 0 17 2 24 5 18 2 -7 2 -21 0 -30z m0 -335 c-2 -18
-4 -6 -4 27 0 33 2 48 4 33 2 -15 2 -42 0 -60z m0 -60 c-3 -8 -6 -5 -6 6 -1
11 2 17 5 13 3 -3 4 -12 1 -19z m0 -75 c-3 -10 -5 -4 -5 12 0 17 2 24 5 18 2
-7 2 -21 0 -30z m-2940 -77 c-9 -116 -50 -265 -102 -371 -47 -97 -126 -201
-168 -224 -25 -14 -30 -12 -84 25 -78 53 -202 172 -274 262 -33 41 -58 76 -56
78 2 2 43 15 93 29 201 57 438 164 539 244 28 22 52 40 54 40 2 1 1 -37 -2
-83z m-1849 -24 c143 -81 300 -143 442 -177 41 -10 79 -21 83 -25 23 -20 -204
-266 -321 -348 l-63 -44 -64 65 c-113 116 -206 345 -222 547 l-6 85 31 -27
c18 -15 71 -49 120 -76z m4789 -54 c-3 -7 -5 -2 -5 12 0 14 2 19 5 13 2 -7 2
-19 0 -25z m0 -175 c-2 -16 -4 -5 -4 22 0 28 2 40 4 28 2 -13 2 -35 0 -50z
m-7870 -260 c-2 -16 -4 -3 -4 27 0 30 2 43 4 28 2 -16 2 -40 0 -55z m7860 -5
c-2 -13 -4 -5 -4 17 -1 22 1 32 4 23 2 -10 2 -28 0 -40z m-7850 -50 c-3 -8 -6
-5 -6 6 -1 11 2 17 5 13 3 -3 4 -12 1 -19z m7840 -40 c-3 -7 -5 -2 -5 12 0 14
2 19 5 13 2 -7 2 -19 0 -25z m-10 -50 c-3 -8 -6 -5 -6 6 -1 11 2 17 5 13 3 -3
4 -12 1 -19z m-7810 -40 c-3 -7 -5 -2 -5 12 0 14 2 19 5 13 2 -7 2 -19 0 -25z
m7800 -10 c-3 -8 -6 -5 -6 6 -1 11 2 17 5 13 3 -3 4 -12 1 -19z m-7790 -30
c-3 -8 -6 -5 -6 6 -1 11 2 17 5 13 3 -3 4 -12 1 -19z m7780 -20 c-3 -7 -5 -2
-5 12 0 14 2 19 5 13 2 -7 2 -19 0 -25z m-7770 -20 c-3 -8 -6 -5 -6 6 -1 11 2
17 5 13 3 -3 4 -12 1 -19z m27 -67 c9 -28 16 -53 16 -58 -1 -12 -26 47 -34 80
-11 45 1 31 18 -22z m7723 17 c-3 -8 -6 -5 -6 6 -1 11 2 17 5 13 3 -3 4 -12 1
-19z m-7668 -163 c0 -5 -6 1 -14 15 -8 14 -14 30 -14 35 0 6 6 -1 14 -15 8
-14 14 -29 14 -35z m7602 -22 c-12 -20 -14 -14 -5 12 4 9 9 14 11 11 3 -2 0
-13 -6 -23z m-7582 -23 c11 -24 11 -24 -3 -6 -9 11 -16 24 -16 30 0 12 5 7 19
-24z m35 -67 c9 -18 14 -33 12 -33 -6 0 -36 55 -36 66 0 11 5 3 24 -33z m61
-109 c9 -15 12 -23 6 -20 -11 7 -35 46 -28 46 3 0 12 -12 22 -26z m40 -60 c9
-15 12 -23 6 -20 -11 7 -35 46 -28 46 3 0 12 -12 22 -26z m7305 -4 c-12 -16
-24 -30 -26 -30 -3 0 4 14 16 30 12 17 24 30 26 30 3 0 -4 -13 -16 -30z m-90
-120 c-12 -16 -24 -30 -26 -30 -3 0 4 14 16 30 12 17 24 30 26 30 3 0 -4 -13
-16 -30z m-6710 -377 c0 -7 -39 17 -46 28 -3 6 5 3 20 -6 14 -10 26 -19 26
-22z m50 -29 c0 -2 -9 0 -20 6 -11 6 -20 13 -20 16 0 2 9 0 20 -6 11 -6 20
-13 20 -16z m70 -40 c0 -2 -13 2 -30 11 -16 9 -30 18 -30 21 0 2 14 -2 30 -11
17 -9 30 -18 30 -21z"/>
<path d="M4350 7530 c-112 -7 -137 -15 -169 -56 -47 -60 -15 -130 115 -255
218 -209 482 -309 820 -309 313 0 601 106 821 304 79 71 143 161 143 201 0 46
-39 89 -92 103 -107 28 -591 22 -675 -8 -15 -6 -64 -49 -109 -96 l-80 -86 -75
83 c-41 45 -89 88 -108 96 -62 26 -359 38 -591 23z m381 -276 l97 -6 68 -70
69 -70 -60 7 c-104 12 -239 69 -310 130 l-30 26 35 -5 c19 -3 78 -8 131 -12z
m929 12 c0 -3 -34 -26 -76 -52 -90 -56 -183 -92 -262 -100 l-57 -6 70 70 70
71 110 9 c61 5 118 10 128 11 9 0 17 -1 17 -3z"/>
<path d="M4342 5343 c-68 -33 -111 -118 -112 -218 0 -148 72 -245 185 -245 84
0 152 55 180 144 38 125 4 254 -84 313 -41 28 -120 31 -169 6z"/>
<path d="M5745 5347 c-42 -19 -92 -79 -104 -124 -14 -50 -14 -161 0 -204 29
-85 96 -139 172 -139 86 0 145 50 173 148 32 109 -4 251 -77 303 -39 28 -121
35 -164 16z"/>
<path d="M4552 4430 c-37 -23 -52 -54 -52 -108 0 -52 28 -93 107 -152 159
-120 316 -165 548 -157 163 6 261 28 363 82 85 44 177 117 202 158 42 68 14
164 -55 187 -51 17 -77 8 -185 -66 -104 -70 -171 -98 -280 -115 -142 -22 -315
25 -442 118 -103 76 -149 88 -206 53z"/>
<path d="M8560 1765 c-41 -41 -70 -75 -64 -75 13 0 149 138 143 144 -3 3 -38
-28 -79 -69z"/>
<path d="M1825 1626 c22 -20 45 -36 50 -35 12 0 -41 46 -70 60 -11 6 -2 -6 20
-25z"/>
</g>
</svg>
